<svg xmlns="http://www.w3.org/2000/svg" width="70.245" height="63.676" viewBox="0 0 70.245 63.676">
  <defs>
    <style>
      .cls-1 {
        fill: #252525;
      }
    </style>
  </defs>
  <path id="Trazado_12944" data-name="Trazado 12944" class="cls-1" d="M99.805,54.777a1.774,1.774,0,0,0-1.668-.337l-1.49.461a18.594,18.594,0,0,0-2.484.994A22.409,22.409,0,0,0,93.63,39.8l-.657-1.508a1.772,1.772,0,0,0-3.034-.39l-1.011,1.3h0a19.624,19.624,0,0,0-2.147,3.549,22.481,22.481,0,0,0-6.867-9.386l-1.153-.923a1.763,1.763,0,0,0-2.8.9l-.408,1.4C73.155,43.032,78,51.193,83.5,55.256l1.242.923h.16a22.3,22.3,0,0,0,1.348,4.986l.266.639A24.716,24.716,0,0,0,81.3,73.124l-.124.657A20.617,20.617,0,0,0,72.8,79.866l-.639.781a18.826,18.826,0,0,0-5.962.781l-.869.213-.869-.266a18.825,18.825,0,0,0-5.962-.781l-.639-.727a20.618,20.618,0,0,0-8.41-6.033l-.089-.727a24.734,24.734,0,0,0-5.181-11.214l.266-.639a23.35,23.35,0,0,0,1.366-4.986h.142l1.242-.923c5.5-4.063,10.344-12.225,7.949-20.511l-.461-1.473a1.763,1.763,0,0,0-2.8-.9l-1.153.923a22.64,22.64,0,0,0-6.867,9.386,19.624,19.624,0,0,0-2.147-3.549l-1.011-1.3a1.774,1.774,0,0,0-3.034.39l-.656,1.508a22.409,22.409,0,0,0-.532,16.093A18.6,18.6,0,0,0,34,54.919l-1.49-.461a1.78,1.78,0,0,0-2.289,1.934l.213,1.526a24.166,24.166,0,0,0,7.363,14.07,29.594,29.594,0,0,0-3.176.319L33,72.556a1.793,1.793,0,0,0-1.136,2.857l.976,1.3A21.292,21.292,0,0,0,46.807,84.5a27.554,27.554,0,0,0-3.832,2.928l-1.1.994A1.774,1.774,0,0,0,42.5,91.4l1.384.5a17.193,17.193,0,0,0,5.7.94,22.126,22.126,0,0,0,11.48-3.549l-1.6,3.974a1.774,1.774,0,0,0,.976,2.324,2.148,2.148,0,0,0,.656.124,1.774,1.774,0,0,0,1.65-1.118l2.591-6.352,2.573,6.37a1.774,1.774,0,0,0,1.65,1.118,2.147,2.147,0,0,0,.656-.124,1.774,1.774,0,0,0,.976-2.324l-1.6-3.974a22.126,22.126,0,0,0,11.48,3.549,17.193,17.193,0,0,0,5.7-.94l1.384-.5a1.774,1.774,0,0,0,.621-2.981l-1.1-.994a26.723,26.723,0,0,0-3.85-2.928A21.292,21.292,0,0,0,97.8,76.726l.976-1.3a1.793,1.793,0,0,0-1.136-2.857l-1.615-.248a29.6,29.6,0,0,0-3.176-.319,24.166,24.166,0,0,0,7.363-14.07l.213-1.526a1.774,1.774,0,0,0-.621-1.632ZM51.9,37.034c.976,5.518-1.987,11.178-5.873,14.585a17.832,17.832,0,0,1,5.962-14.638ZM39.763,42.606a19.074,19.074,0,0,1,1.774,15.969,18.754,18.754,0,0,1-1.774-15.969ZM34.209,58.77A19.872,19.872,0,0,1,45.565,72.52c-6.05-1.987-10.114-8.055-11.356-13.786Zm19.979,22.25c-5.908.834-13.112-.55-17.583-5.323C42.371,75.022,49.468,76.211,54.188,81.019Zm-7.559,7.913a19.517,19.517,0,0,1,15.153-4.542C57.931,87.744,52.147,90.139,46.629,88.933Zm22.25-4.542c5.66-1.082,11.3,1.4,15.224,4.542C78.513,90.139,72.729,87.744,68.879,84.391ZM90.9,42.606a18.754,18.754,0,0,1-1.774,15.969A19.074,19.074,0,0,1,90.9,42.606ZM78.673,37.017A17.832,17.832,0,0,1,84.546,51.6c-3.886-3.442-6.8-9.1-5.873-14.62Zm-2.2,44c4.72-4.808,11.835-6,17.583-5.323C89.585,80.469,82.381,81.853,76.473,81.019ZM85.1,72.485A19.872,19.872,0,0,1,96.452,58.734C95.21,64.465,91.146,70.533,85.1,72.485Z" transform="translate(-30.201 -32.052)"/>
</svg>
