<svg xmlns="http://www.w3.org/2000/svg" width="22.097" height="29.687" viewBox="0 0 22.097 29.687">
  <g id="noun_Shopping_Bag_307809" data-name="noun_Shopping Bag_307809" transform="translate(1 1)">
    <path id="Trazado_12946" data-name="Trazado 12946" d="M87.875,8.9l-3.167,0V4.5a4.5,4.5,0,0,0-9.006,0V8.9H72.574a.493.493,0,0,0-.468.418C72.089,9.48,70.2,27,70.179,27.221a.491.491,0,0,0,.494.466h19.11a.494.494,0,0,0,.493-.493C90.256,27,88.368,9.48,88.349,9.3A.489.489,0,0,0,87.875,8.9ZM76.688,4.5a3.517,3.517,0,0,1,7.034,0V8.9H76.688ZM71.225,26.7l.037-.341c.272-2.544,1.034-9.609,1.588-14.755l.185-1.719H75.7V11.8a.493.493,0,0,0,.985,0V9.886h7.034V11.8a.493.493,0,0,0,.986,0V9.886H87.42L89.232,26.7H71.225Z" transform="translate(-70.179)" fill="#fff" stroke="#fff" stroke-width="2"/>
  </g>
</svg>
